<svg version="1.1" preserveAspectRatio="none" xmlns="http://www.w3.org/2000/svg" width="500" height="500" viewBox="0 0 500 500"><rect width="100%" height="100%" fill="#0A0A0A" fill-opacity="1"/><svg viewBox="66.5783 191.0612 396.8171 220" width="333" height="184.61906001530681" x="83.5px" y="157.6905px" xmlns="http://www.w3.org/2000/svg" xmlns:xlink="http://www.w3.org/1999/xlink" preserveAspectRatio="none"><defs></defs><style>.companyName {fill:#E9E9E9;fill-opacity:1;}.icon2 {fill:#7065EF;fill-opacity:1;}.icon3 {fill:#C4C4C4;fill-opacity:1;}.icon3-str {stroke:#C4C4C4;stroke-opacity:1;}.shape {fill:#28208C;fill-opacity:1;}.text {fill:#E9E9E9;fill-opacity:1;}</style><g opacity="1" transform="rotate(0 99.414 191.0612)">
<svg width="331.1457" height="220" x="99.414" y="191.0612" version="1.1" preserveAspectRatio="none" viewBox="4.200999736785889 21.96699905395508 89.02999114990234 59.14799880981445">
  <g transform="matrix(1 0 0 1 0 0)" class="shape"><g><circle cx="46.796" cy="22.734" r="0.767"></circle><circle cx="46.796" cy="26.58" r="0.886"></circle><circle cx="46.796" cy="30.425" r="1.004"></circle><circle cx="46.797" cy="34.271" r="1.12"></circle><circle cx="46.796" cy="38.079" r="1.24"></circle><circle cx="46.797" cy="41.963" r="1.356"></circle><circle cx="46.797" cy="45.809" r="1.476"></circle><circle cx="43.004" cy="22.734" r="0.767"></circle><circle cx="43.004" cy="26.58" r="0.886"></circle><circle cx="43.004" cy="30.425" r="1.004"></circle><circle cx="43.004" cy="34.271" r="1.12"></circle><circle cx="43.004" cy="38.079" r="1.24"></circle><circle cx="43.004" cy="41.963" r="1.356"></circle><circle cx="43.004" cy="80.348" r="0.767"></circle><circle cx="43.004" cy="76.57" r="0.886"></circle><circle cx="43.004" cy="72.723" r="1.003"></circle><circle cx="43.004" cy="68.876" r="1.121"></circle><circle cx="43.004" cy="65.031" r="1.239"></circle><circle cx="43.004" cy="61.186" r="1.356"></circle><circle cx="46.796" cy="80.348" r="0.767"></circle><circle cx="46.796" cy="76.57" r="0.886"></circle><circle cx="46.796" cy="72.723" r="1.003"></circle><circle cx="46.797" cy="68.876" r="1.121"></circle><circle cx="46.796" cy="65.031" r="1.239"></circle><circle cx="46.797" cy="61.186" r="1.356"></circle><circle cx="43.004" cy="45.809" r="1.476"></circle><circle cx="46.797" cy="49.447" r="1.476"></circle><circle cx="43.004" cy="49.447" r="1.476"></circle><circle cx="46.797" cy="53.083" r="1.475"></circle><circle cx="43.004" cy="53.083" r="1.475"></circle><circle cx="46.797" cy="57.024" r="1.475"></circle><circle cx="50.594" cy="22.734" r="0.767"></circle><circle cx="50.591" cy="26.58" r="0.886"></circle><circle cx="50.586" cy="30.425" r="1.004"></circle><circle cx="50.582" cy="34.271" r="1.12"></circle><circle cx="50.578" cy="38.079" r="1.24"></circle><circle cx="50.573" cy="41.963" r="1.356"></circle><circle cx="50.57" cy="45.809" r="1.476"></circle><circle cx="50.594" cy="80.348" r="0.767"></circle><circle cx="50.591" cy="76.57" r="0.886"></circle><circle cx="50.586" cy="72.723" r="1.003"></circle><circle cx="50.582" cy="68.876" r="1.121"></circle><circle cx="50.578" cy="65.031" r="1.239"></circle><circle cx="50.573" cy="61.186" r="1.356"></circle><circle cx="50.57" cy="49.447" r="1.476"></circle><circle cx="50.57" cy="53.083" r="1.475"></circle><circle cx="50.57" cy="57.024" r="1.475"></circle><circle cx="54.53" cy="76.57" r="0.886"></circle><circle cx="54.525" cy="72.723" r="1.003"></circle><circle cx="54.522" cy="68.876" r="1.121"></circle><circle cx="54.52" cy="65.031" r="1.239"></circle><circle cx="58.309" cy="49.571" r="1.24"></circle><circle cx="62.145" cy="49.571" r="1.144"></circle><circle cx="65.983" cy="49.571" r="1.049"></circle><circle cx="69.821" cy="49.571" r="0.954"></circle><circle cx="73.659" cy="49.571" r="0.859"></circle><circle cx="77.497" cy="49.571" r="0.763"></circle><circle cx="81.334" cy="49.571" r="0.668"></circle><circle cx="85.172" cy="49.571" r="0.573"></circle><circle cx="89.01" cy="49.571" r="0.479"></circle><circle cx="92.848" cy="49.571" r="0.383"></circle><path d="M35.535,52.165c0.684,0,1.239,0.553,1.239,1.238s-0.556,1.24-1.239,1.24s-1.238-0.555-1.238-1.24   C34.297,52.722,34.852,52.165,35.535,52.165z"></path><circle cx="31.698" cy="53.403" r="1.144"></circle><circle cx="27.713" cy="53.403" r="0.764"></circle><circle cx="23.876" cy="53.403" r="0.668"></circle><circle cx="20.038" cy="53.403" r="0.573"></circle><circle cx="16.2" cy="53.403" r="0.479"></circle><circle cx="12.363" cy="53.403" r="0.383"></circle><circle cx="58.356" cy="57.149" r="1.144"></circle><circle cx="62.194" cy="57.149" r="1.049"></circle><circle cx="66.032" cy="57.149" r="0.953"></circle><circle cx="69.87" cy="57.149" r="0.858"></circle><circle cx="73.707" cy="57.149" r="0.763"></circle><circle cx="77.545" cy="57.149" r="0.669"></circle><circle cx="81.383" cy="57.149" r="0.572"></circle><circle cx="85.221" cy="57.149" r="0.479"></circle><circle cx="89.058" cy="57.149" r="0.383"></circle><circle cx="58.356" cy="60.788" r="1.144"></circle><circle cx="62.194" cy="60.788" r="1.049"></circle><circle cx="66.032" cy="60.788" r="0.953"></circle><path d="M70.729,60.788c0,0.473-0.384,0.857-0.859,0.857c-0.474,0-0.857-0.385-0.857-0.857c0-0.477,0.384-0.859,0.857-0.859   C70.345,59.929,70.729,60.312,70.729,60.788z"></path><circle cx="73.707" cy="60.788" r="0.763"></circle><circle cx="77.545" cy="60.788" r="0.669"></circle><circle cx="81.383" cy="60.788" r="0.572"></circle><circle cx="85.221" cy="60.788" r="0.479"></circle><circle cx="89.058" cy="60.788" r="0.383"></circle><circle cx="58.449" cy="65.032" r="0.668"></circle><circle cx="62.286" cy="65.032" r="0.573"></circle><circle cx="66.124" cy="65.032" r="0.477"></circle><circle cx="69.963" cy="65.031" r="0.384"></circle><circle cx="58.449" cy="68.972" r="0.668"></circle><circle cx="62.286" cy="68.972" r="0.573"></circle><circle cx="66.124" cy="68.972" r="0.477"></circle><circle cx="69.963" cy="68.973" r="0.382"></circle><circle cx="58.449" cy="72.761" r="0.668"></circle><circle cx="62.286" cy="72.761" r="0.573"></circle><circle cx="66.124" cy="72.761" r="0.477"></circle><circle cx="69.963" cy="72.762" r="0.382"></circle><path d="M59.117,76.548c0,0.369-0.3,0.67-0.669,0.67s-0.668-0.301-0.668-0.67c0-0.367,0.299-0.666,0.668-0.666   S59.117,76.181,59.117,76.548z"></path><path d="M62.858,76.548c0,0.318-0.255,0.576-0.572,0.576c-0.316,0-0.573-0.258-0.573-0.576c0-0.314,0.257-0.57,0.573-0.57   C62.604,75.978,62.858,76.233,62.858,76.548z"></path><path d="M66.601,76.548c0,0.264-0.212,0.48-0.478,0.48c-0.263,0-0.477-0.217-0.477-0.48c0-0.262,0.214-0.477,0.477-0.477   C66.389,76.071,66.601,76.286,66.601,76.548z"></path><circle cx="39.236" cy="80.348" r="0.767"></circle><circle cx="35.301" cy="80.349" r="0.573"></circle><circle cx="31.464" cy="80.349" r="0.478"></circle><circle cx="27.627" cy="80.349" r="0.383"></circle><circle cx="58.309" cy="53.209" r="1.239"></circle><circle cx="62.145" cy="53.21" r="1.144"></circle><circle cx="65.983" cy="53.21" r="1.049"></circle><circle cx="69.821" cy="53.21" r="0.954"></circle><circle cx="73.659" cy="53.21" r="0.859"></circle><circle cx="77.497" cy="53.21" r="0.763"></circle><circle cx="81.334" cy="53.21" r="0.668"></circle><circle cx="85.172" cy="53.21" r="0.573"></circle><circle cx="89.01" cy="53.21" r="0.479"></circle><circle cx="54.514" cy="61.186" r="1.356"></circle><circle cx="54.511" cy="49.447" r="1.476"></circle><circle cx="58.309" cy="45.783" r="1.239"></circle><circle cx="62.145" cy="45.782" r="1.144"></circle><circle cx="65.983" cy="45.782" r="1.049"></circle><circle cx="69.821" cy="45.782" r="0.954"></circle><circle cx="73.659" cy="45.782" r="0.859"></circle><circle cx="77.497" cy="45.782" r="0.763"></circle><path d="M82.002,45.782c0,0.369-0.299,0.67-0.667,0.67c-0.369,0-0.669-0.301-0.669-0.67c0-0.367,0.3-0.668,0.669-0.668   C81.703,45.114,82.002,45.415,82.002,45.782z"></path><circle cx="85.172" cy="45.782" r="0.573"></circle><circle cx="89.01" cy="45.782" r="0.479"></circle><circle cx="92.848" cy="45.782" r="0.383"></circle><circle cx="35.441" cy="45.632" r="0.954"></circle><circle cx="31.604" cy="45.632" r="0.858"></circle><circle cx="27.766" cy="45.632" r="0.764"></circle><circle cx="23.928" cy="45.632" r="0.668"></circle><circle cx="20.09" cy="45.632" r="0.573"></circle><circle cx="16.252" cy="45.632" r="0.478"></circle><circle cx="12.414" cy="45.631" r="0.382"></circle><circle cx="35.368" cy="30.323" r="0.574"></circle><circle cx="31.529" cy="30.323" r="0.479"></circle><circle cx="27.692" cy="30.323" r="0.383"></circle><circle cx="35.368" cy="34.265" r="0.689"></circle><circle cx="31.529" cy="34.265" r="0.479"></circle><circle cx="27.692" cy="34.265" r="0.383"></circle><circle cx="35.463" cy="26.687" r="0.478"></circle><path d="M54.52,43.233c-0.686,0-1.24-0.555-1.24-1.24c0-0.682,0.555-1.238,1.24-1.238c0.683,0,1.237,0.557,1.237,1.238   C55.757,42.679,55.202,43.233,54.52,43.233z"></path><circle cx="58.356" cy="41.993" r="1.144"></circle><circle cx="62.194" cy="41.993" r="1.049"></circle><circle cx="54.52" cy="38.079" r="1.24"></circle><circle cx="58.356" cy="38.079" r="1.144"></circle><circle cx="62.194" cy="38.079" r="1.049"></circle><circle cx="66.032" cy="41.993" r="0.953"></circle><path d="M70.729,41.993c0,0.473-0.384,0.861-0.859,0.861c-0.474,0-0.857-0.389-0.857-0.861s0.384-0.859,0.857-0.859   C70.345,41.134,70.729,41.521,70.729,41.993z"></path><circle cx="54.464" cy="34.265" r="1.049"></circle><circle cx="58.302" cy="34.265" r="0.954"></circle><circle cx="62.14" cy="34.265" r="0.859"></circle><circle cx="73.707" cy="41.993" r="0.763"></circle><circle cx="77.545" cy="41.993" r="0.669"></circle><circle cx="66.027" cy="38.079" r="0.667"></circle><circle cx="81.383" cy="41.993" r="0.572"></circle><circle cx="69.864" cy="38.079" r="0.573"></circle><circle cx="85.221" cy="41.993" r="0.479"></circle><circle cx="89.058" cy="41.995" r="0.383"></circle><circle cx="73.6" cy="38.079" r="0.383"></circle><circle cx="35.251" cy="38.079" r="1.144"></circle><circle cx="31.413" cy="38.079" r="1.049"></circle><circle cx="27.58" cy="38.079" r="0.668"></circle><circle cx="23.743" cy="38.079" r="0.573"></circle><circle cx="20.008" cy="38.079" r="0.383"></circle><circle cx="35.251" cy="42.019" r="1.144"></circle><circle cx="31.413" cy="42.019" r="1.049"></circle><circle cx="27.58" cy="42.019" r="0.668"></circle><circle cx="23.743" cy="42.019" r="0.573"></circle><circle cx="20.008" cy="42.021" r="0.383"></circle><circle cx="54.616" cy="30.349" r="1.048"></circle><path d="M59.117,30.349c0,0.369-0.3,0.67-0.669,0.67s-0.668-0.301-0.668-0.67c0-0.367,0.299-0.668,0.668-0.668   S59.117,29.981,59.117,30.349z"></path><circle cx="62.286" cy="30.349" r="0.573"></circle><circle cx="66.021" cy="30.35" r="0.384"></circle><circle cx="54.405" cy="26.712" r="0.573"></circle><circle cx="58.141" cy="26.712" r="0.383"></circle><circle cx="54.511" cy="45.658" r="1.476"></circle><circle cx="54.511" cy="53.083" r="1.475"></circle><circle cx="54.511" cy="57.024" r="1.475"></circle><circle cx="43.004" cy="57.024" r="1.475"></circle><circle cx="39.237" cy="26.58" r="0.886"></circle><circle cx="39.237" cy="30.425" r="1.004"></circle><circle cx="35.368" cy="76.399" r="0.574"></circle><circle cx="31.529" cy="76.399" r="0.479"></circle><circle cx="27.692" cy="76.397" r="0.383"></circle><circle cx="39.237" cy="76.5" r="1.003"></circle><circle cx="39.237" cy="34.271" r="1.12"></circle><circle cx="39.237" cy="38.079" r="1.24"></circle><path d="M34.107,72.329c0-0.629,0.512-1.143,1.143-1.143c0.633,0,1.146,0.514,1.146,1.143c0,0.635-0.513,1.146-1.146,1.146   C34.619,73.476,34.107,72.964,34.107,72.329z"></path><path d="M30.364,72.329c0-0.576,0.47-1.047,1.049-1.047c0.58,0,1.049,0.471,1.049,1.047c0,0.584-0.469,1.053-1.049,1.053   C30.834,73.382,30.364,72.913,30.364,72.329z"></path><path d="M26.912,72.329c0-0.365,0.301-0.666,0.669-0.666c0.369,0,0.667,0.301,0.667,0.666c0,0.371-0.298,0.67-0.667,0.67   C27.213,72.999,26.912,72.7,26.912,72.329z"></path><path d="M23.17,72.329c0-0.314,0.257-0.57,0.573-0.57s0.572,0.256,0.572,0.57c0,0.318-0.256,0.574-0.572,0.574   S23.17,72.647,23.17,72.329z"></path><path d="M20.008,71.948c0.212,0,0.384,0.17,0.384,0.381c0,0.215-0.172,0.385-0.384,0.385c-0.21,0-0.383-0.17-0.383-0.385   C19.625,72.118,19.798,71.948,20.008,71.948z"></path><path d="M39.237,71.093c-0.687,0-1.24,0.553-1.24,1.236c0,0.688,0.554,1.24,1.24,1.24c0.684,0,1.238-0.553,1.238-1.24   C40.476,71.646,39.921,71.093,39.237,71.093z"></path><circle cx="39.237" cy="41.963" r="1.356"></circle><circle cx="35.251" cy="49.446" r="1.144"></circle><circle cx="31.413" cy="49.446" r="1.049"></circle><circle cx="27.58" cy="49.446" r="0.668"></circle><circle cx="23.743" cy="49.446" r="0.573"></circle><circle cx="20.008" cy="49.446" r="0.383"></circle><path d="M39.237,48.032c-0.751,0-1.357,0.609-1.357,1.359c0,0.746,0.606,1.355,1.357,1.355c0.748,0,1.356-0.609,1.356-1.355   C40.594,48.642,39.985,48.032,39.237,48.032z"></path><circle cx="39.237" cy="45.809" r="1.476"></circle><circle cx="39.237" cy="53.404" r="1.474"></circle><circle cx="35.535" cy="57.193" r="1.239"></circle><circle cx="31.698" cy="57.192" r="1.144"></circle><circle cx="27.713" cy="57.192" r="0.764"></circle><circle cx="23.876" cy="57.192" r="0.668"></circle><circle cx="20.038" cy="57.192" r="0.573"></circle><circle cx="16.2" cy="57.192" r="0.479"></circle><circle cx="12.363" cy="57.193" r="0.382"></circle><circle cx="8.422" cy="57.191" r="0.317"></circle><circle cx="4.481" cy="57.193" r="0.28"></circle><circle cx="39.237" cy="57.192" r="1.475"></circle><circle cx="35.535" cy="60.981" r="1.238"></circle><circle cx="31.698" cy="60.981" r="1.144"></circle><path d="M26.949,60.981c0-0.422,0.343-0.762,0.766-0.762c0.42,0,0.762,0.34,0.762,0.762c0,0.424-0.342,0.764-0.762,0.764   C27.292,61.745,26.949,61.405,26.949,60.981z"></path><path d="M23.208,60.983c0-0.369,0.299-0.67,0.668-0.67s0.669,0.299,0.669,0.67c-0.001,0.367-0.3,0.666-0.669,0.666   S23.208,61.351,23.208,60.983z"></path><circle cx="20.038" cy="60.983" r="0.573"></circle><circle cx="16.2" cy="60.981" r="0.479"></circle><circle cx="12.363" cy="60.982" r="0.382"></circle><circle cx="8.422" cy="60.982" r="0.317"></circle><circle cx="4.481" cy="60.982" r="0.28"></circle><circle cx="73.796" cy="65.074" r="0.28"></circle><circle cx="73.796" cy="68.862" r="0.279"></circle><circle cx="39.236" cy="64.923" r="1.238"></circle><circle cx="35.487" cy="64.923" r="1.144"></circle><circle cx="31.503" cy="64.923" r="0.764"></circle><circle cx="27.665" cy="64.923" r="0.669"></circle><circle cx="23.828" cy="64.923" r="0.574"></circle><circle cx="19.989" cy="64.923" r="0.478"></circle><circle cx="16.151" cy="64.923" r="0.383"></circle><circle cx="12.212" cy="64.923" r="0.316"></circle><circle cx="8.271" cy="64.923" r="0.279"></circle><circle cx="39.236" cy="68.711" r="1.239"></circle><circle cx="35.487" cy="68.712" r="1.144"></circle><circle cx="31.503" cy="68.712" r="0.764"></circle><circle cx="27.665" cy="68.712" r="0.669"></circle><circle cx="23.828" cy="68.712" r="0.574"></circle><circle cx="19.989" cy="68.712" r="0.478"></circle><circle cx="16.151" cy="68.712" r="0.383"></circle><circle cx="12.212" cy="68.713" r="0.317"></circle><circle cx="39.237" cy="60.982" r="1.476"></circle></g></g>
</svg>
</g><g opacity="1" transform="rotate(0 187.3755 348.0612)">
<svg width="155.2227" height="21" x="187.3755" y="348.0612" version="1.1" preserveAspectRatio="none" viewBox="1.36 -28 267.84 36.239999999999995">
  <g transform="matrix(1 0 0 1 0 0)" class="text"><path id="id-6izo4zJp12" d="M18.20 0L18.20-3.20Q15.80 0.32 11.04 0.32L11.04 0.32Q6.72 0.32 4-2.68L4-2.68Q1.36-5.64 1.36-10L1.36-10Q1.36-14.36 4-17.32L4-17.32Q6.72-20.32 11.24-20.32Q15.76-20.32 18.20-16.76L18.20-16.76L18.20-20L21.20-20L21.20 0L18.20 0ZM11.44-2.40L11.44-2.40Q14.68-2.40 16.56-4.64L16.56-4.64Q18.36-6.76 18.36-10L18.36-10Q18.36-13.24 16.56-15.36L16.56-15.36Q14.68-17.60 11.44-17.60L11.44-17.60Q8.24-17.60 6.24-15.36L6.24-15.36Q4.36-13.24 4.36-10L4.36-10Q4.36-6.76 6.24-4.64L6.24-4.64Q8.24-2.40 11.44-2.40Z M45.20-14.64L42.16-14.64Q41.76-17.76 37.14-17.76Q32.52-17.76 32.52-14.88L32.52-14.88Q32.52-13.68 33.50-13.06Q34.48-12.44 35.96-12.04Q37.44-11.64 39.18-11.30Q40.92-10.96 42.40-10.34Q43.88-9.72 44.86-8.64Q45.84-7.56 45.84-5.68L45.84-5.68Q45.84-2.76 43.64-1.22Q41.44 0.32 37.68 0.32L37.68 0.32Q33.68 0.32 31.32-1.68L31.32-1.68Q29.16-3.44 29-6.28L29-6.28L32.12-6.28Q32.40-3.52 35.24-2.56L35.24-2.56Q36.28-2.24 37.30-2.24Q38.32-2.24 39.20-2.36Q40.08-2.48 40.92-2.80L40.92-2.80Q42.84-3.56 42.84-5.40L42.84-5.40Q42.84-6.64 41.86-7.30Q40.88-7.96 39.40-8.38Q37.92-8.80 36.18-9.14Q34.44-9.48 32.96-10.08Q31.48-10.68 30.50-11.72Q29.52-12.76 29.52-14.60L29.52-14.60Q29.52-17.32 31.50-18.82Q33.48-20.32 37.36-20.32L37.36-20.32Q41.04-20.32 43.16-18.56L43.16-18.56Q44.92-17.08 45.20-14.64L45.20-14.64Z M70.52-20L62.48-12.12L71.12 0L67.44 0L60.44-10.04L56.68-6.32L56.68 0L53.68 0L53.68-28L56.68-28L56.68-10.08L66.32-20L70.52-20Z M105.88 0L105.88-3.20Q103.48 0.32 98.72 0.32L98.72 0.32Q94.40 0.32 91.68-2.68L91.68-2.68Q89.04-5.64 89.04-10L89.04-10Q89.04-14.36 91.68-17.32L91.68-17.32Q94.40-20.32 98.92-20.32Q103.44-20.32 105.88-16.76L105.88-16.76L105.88-20L108.88-20L108.88 0L105.88 0ZM99.12-2.40L99.12-2.40Q102.36-2.40 104.24-4.64L104.24-4.64Q106.04-6.76 106.04-10L106.04-10Q106.04-13.24 104.24-15.36L104.24-15.36Q102.36-17.60 99.12-17.60L99.12-17.60Q95.92-17.60 93.92-15.36L93.92-15.36Q92.04-13.24 92.04-10L92.04-10Q92.04-6.76 93.92-4.64L93.92-4.64Q95.92-2.40 99.12-2.40Z M118.08-20L121.08-20L121.08-16.88Q122.16-18.32 123.72-19.32Q125.28-20.32 127.28-20.32Q129.28-20.32 130.72-19.76Q132.16-19.20 133.24-18.08L133.24-18.08Q135.72-15.64 135.72-11.64L135.72-11.64L135.72 0L132.72 0L132.72-11.56Q132.72-14.32 131.16-15.96Q129.60-17.60 127.12-17.60L127.12-17.60Q124.60-17.60 122.84-15.92L122.84-15.92Q121.08-14.20 121.08-11.52L121.08-11.52L121.08 0L118.08 0L118.08-20Z M161.36-20L149.52 7.92L146.28 7.92L149.92-0.28L141.76-20L145.08-20L151.52-3.60L158.08-20L161.36-20Z M173.24 0L170.24 0L170.24-17.36L166.16-17.36L166.16-20L170.24-20L170.24-27.16L173.24-27.16L173.24-20L177.84-20L177.84-17.36L173.24-17.36L173.24 0Z M185.12-28L188.12-28L188.12-16.88Q189.20-18.32 190.76-19.32Q192.32-20.32 194.32-20.32Q196.32-20.32 197.76-19.76Q199.20-19.20 200.28-18.08L200.28-18.08Q202.76-15.64 202.76-11.64L202.76-11.64L202.76 0L199.76 0L199.76-11.56Q199.76-14.32 198.20-15.96Q196.64-17.60 194.16-17.60L194.16-17.60Q191.64-17.60 189.88-15.92L189.88-15.92Q188.12-14.20 188.12-11.52L188.12-11.52L188.12 0L185.12 0L185.12-28Z M211.76 0L211.76-20L214.76-20L214.76 0L211.76 0ZM211.64-27.28L214.88-27.28L214.88-23.36L211.64-23.36L211.64-27.28Z M223.96-20L226.96-20L226.96-16.88Q228.04-18.32 229.60-19.32Q231.16-20.32 233.16-20.32Q235.16-20.32 236.60-19.76Q238.04-19.20 239.12-18.08L239.12-18.08Q241.60-15.64 241.60-11.64L241.60-11.64L241.60 0L238.60 0L238.60-11.56Q238.60-14.32 237.04-15.96Q235.48-17.60 233.00-17.60L233.00-17.60Q230.48-17.60 228.72-15.92L228.72-15.92Q226.96-14.20 226.96-11.52L226.96-11.52L226.96 0L223.96 0L223.96-20Z M266.20-16.80L266.20-16.80L266.20-20L269.20-20L269.20-0.60Q269.20 3.72 266.74 5.98Q264.28 8.24 260.12 8.24Q255.96 8.24 253.62 6.64Q251.28 5.04 250.44 2.40L250.44 2.40L253.76 2.40Q255.04 5.52 259.60 5.52L259.60 5.52Q263.08 5.52 264.64 3.92Q266.20 2.32 266.20-0.80L266.20-0.80L266.20-3.56Q263.76 0 259.04 0L259.04 0Q254.72 0 252.00-2.96L252.00-2.96Q249.36-5.84 249.36-10.16L249.36-10.16Q249.36-14.48 252.00-17.36L252.00-17.36Q254.72-20.32 259.26-20.32Q263.80-20.32 266.20-16.80ZM259.44-2.72L259.44-2.72Q261.08-2.72 262.36-3.30Q263.64-3.88 264.56-4.88L264.56-4.88Q266.36-6.96 266.36-10.16L266.36-10.16Q266.36-13.36 264.56-15.44L264.56-15.44Q262.60-17.60 259.44-17.60L259.44-17.60Q256.20-17.60 254.24-15.44L254.24-15.44Q252.36-13.32 252.36-10.16L252.36-10.16Q252.36-7 254.24-4.88L254.24-4.88Q256.20-2.72 259.44-2.72Z"/></g>
</svg>
</g><g opacity="1" transform="rotate(0 66.5783 276.0612)">
<svg width="396.8171" height="50" x="66.5783" y="276.0612" version="1.1" preserveAspectRatio="none" viewBox="-0.36 -29.68 239.36 30.16">
  <g transform="matrix(1 0 0 1 0 0)" class="companyName"><path id="id-D6z1nYkh11" d="M24.24 0L21.76-6L8.76-6L6.28 0L-0.36 0L12.12-28L18.52-28L31.04 0L24.24 0ZM10.84-10.92L19.72-10.92L15.28-21.64L10.84-10.92Z M33.96 0L33.96-28L40.44-28L40.44 0L33.96 0Z M71.80 0.48Q67.52 0.48 64.06-1.38Q60.60-3.24 58.62-6.54Q56.64-9.84 56.64-14L56.64-14Q56.64-18.16 58.62-21.46Q60.60-24.76 64.06-26.62Q67.52-28.48 71.84-28.48L71.84-28.48Q75.48-28.48 78.42-27.20Q81.36-25.92 83.36-23.52L83.36-23.52L79.20-19.68Q76.36-22.96 72.16-22.96L72.16-22.96Q69.56-22.96 67.52-21.82Q65.48-20.68 64.34-18.64Q63.20-16.60 63.20-14L63.20-14Q63.20-11.40 64.34-9.36Q65.48-7.32 67.52-6.18Q69.56-5.04 72.16-5.04L72.16-5.04Q76.36-5.04 79.20-8.36L79.20-8.36L83.36-4.52Q81.36-2.08 78.40-0.80Q75.44 0.48 71.80 0.48L71.80 0.48Z M100.36-21.84Q104.36-21.84 106.82-19.44Q109.28-17.04 109.28-12.32L109.28-12.32L109.28 0L103.04 0L103.04-11.36Q103.04-13.92 101.92-15.18Q100.80-16.44 98.68-16.44L98.68-16.44Q96.32-16.44 94.92-14.98Q93.52-13.52 93.52-10.64L93.52-10.64L93.52 0L87.28 0L87.28-29.68L93.52-29.68L93.52-19.28Q94.76-20.52 96.52-21.18Q98.28-21.84 100.36-21.84L100.36-21.84Z M123.60-21.84Q128.60-21.84 131.28-19.46Q133.96-17.08 133.96-12.28L133.96-12.28L133.96 0L128.12 0L128.12-2.68Q126.36 0.32 121.56 0.32L121.56 0.32Q119.08 0.32 117.26-0.52Q115.44-1.36 114.48-2.84Q113.52-4.32 113.52-6.20L113.52-6.20Q113.52-9.20 115.78-10.92Q118.04-12.64 122.76-12.64L122.76-12.64L127.72-12.64Q127.72-14.68 126.48-15.78Q125.24-16.88 122.76-16.88L122.76-16.88Q121.04-16.88 119.38-16.34Q117.72-15.80 116.56-14.88L116.56-14.88L114.32-19.24Q116.08-20.48 118.54-21.16Q121-21.84 123.60-21.84L123.60-21.84ZM123.12-3.88Q124.72-3.88 125.96-4.62Q127.20-5.36 127.72-6.80L127.72-6.80L127.72-9L123.44-9Q119.60-9 119.60-6.48L119.60-6.48Q119.60-5.28 120.54-4.58Q121.48-3.88 123.12-3.88L123.12-3.88Z M151.80-5.44L153.48-1.04Q152.56-0.36 151.22-0.02Q149.88 0.32 148.40 0.32L148.40 0.32Q144.56 0.32 142.46-1.64Q140.36-3.60 140.36-7.40L140.36-7.40L140.36-16.24L137.04-16.24L137.04-21.04L140.36-21.04L140.36-26.28L146.60-26.28L146.60-21.04L151.96-21.04L151.96-16.24L146.60-16.24L146.60-7.48Q146.60-6.12 147.30-5.38Q148-4.64 149.28-4.64L149.28-4.64Q150.76-4.64 151.80-5.44L151.80-5.44Z M189.32-14.56Q191.72-13.80 193.08-12.02Q194.44-10.24 194.44-7.64L194.44-7.64Q194.44-3.96 191.58-1.98Q188.72 0 183.24 0L183.24 0L168.76 0L168.76-28L182.44-28Q187.56-28 190.30-26.04Q193.04-24.08 193.04-20.72L193.04-20.72Q193.04-18.68 192.06-17.08Q191.08-15.48 189.32-14.56L189.32-14.56ZM181.64-23.12L175.20-23.12L175.20-16.52L181.64-16.52Q184.04-16.52 185.28-17.36Q186.52-18.20 186.52-19.84L186.52-19.84Q186.52-21.48 185.28-22.30Q184.04-23.12 181.64-23.12L181.64-23.12ZM182.76-4.88Q185.32-4.88 186.62-5.72Q187.92-6.56 187.92-8.32L187.92-8.32Q187.92-11.80 182.76-11.80L182.76-11.80L175.20-11.80L175.20-4.88L182.76-4.88Z M209.16 0.32Q205.76 0.32 203.06-1.10Q200.36-2.52 198.84-5.04Q197.32-7.56 197.32-10.76L197.32-10.76Q197.32-13.96 198.84-16.48Q200.36-19 203.06-20.42Q205.76-21.84 209.16-21.84L209.16-21.84Q212.56-21.84 215.24-20.42Q217.92-19 219.44-16.48Q220.96-13.96 220.96-10.76L220.96-10.76Q220.96-7.56 219.44-5.04Q217.92-2.52 215.24-1.10Q212.56 0.32 209.16 0.32L209.16 0.32ZM209.16-4.80Q211.56-4.80 213.10-6.42Q214.64-8.04 214.64-10.76L214.64-10.76Q214.64-13.48 213.10-15.10Q211.56-16.72 209.16-16.72L209.16-16.72Q206.76-16.72 205.20-15.10Q203.64-13.48 203.64-10.76L203.64-10.76Q203.64-8.04 205.20-6.42Q206.76-4.80 209.16-4.80L209.16-4.80Z M237.32-5.44L239.00-1.04Q238.08-0.36 236.74-0.02Q235.40 0.32 233.92 0.32L233.92 0.32Q230.08 0.32 227.98-1.64Q225.88-3.60 225.88-7.40L225.88-7.40L225.88-16.24L222.56-16.24L222.56-21.04L225.88-21.04L225.88-26.28L232.12-26.28L232.12-21.04L237.48-21.04L237.48-16.24L232.12-16.24L232.12-7.48Q232.12-6.12 232.82-5.38Q233.52-4.64 234.80-4.64L234.80-4.64Q236.28-4.64 237.32-5.44L237.32-5.44Z"/></g>
</svg>
</g></svg></svg>